# xmcd CD database file
#
# Track frame offsets:
#	150
#	17902
#	44977
#	64575
#	79702
#	105300
#	123030
#	137055
#	170037
#	187230
#	208830
#	230965
#
# Disc length: 3341 seconds
#
# Revision: 0
# Processed by: cddbd v1.4PL0 Copyright (c) Steve Scherf et al.
# Submitted via: CDex 1.50Beta7
#
DISCID=b20d0b0c
DTITLE=Lawrence Brown - Slide Trombone
DYEAR=1955
DGENRE=Jazz
TTITLE0=Rose of the Rio Grande
TTITLE1=Caravan
TTITLE2=Down the Street, 'Round the Corner Blues
TTITLE3=Where or When
TTITLE4=Just One of Those Things
TTITLE5=Ill Wind
TTITLE6=You Took Advantage of Me
TTITLE7=Blues for Duke
TTITLE8=Just as Though You Were Here
TTITLE9=Autumn in New York
TTITLE10=Time After Time
TTITLE11=For All We Know
EXTD=YEAR: 1955
EXTT0=
EXTT1=
EXTT2=
EXTT3=
EXTT4=
EXTT5=
EXTT6=
EXTT7=
EXTT8=
EXTT9=
EXTT10=
EXTT11=
PLAYORDER=
